<svg width="9" height="8" viewBox="0 0 9 8" fill="none" xmlns="http://www.w3.org/2000/svg">
<path d="M2.5771 7.29652C2.63103 7.32457 2.69157 7.3374 2.75223 7.33364C2.8129 7.32989 2.87139 7.30968 2.92144 7.27519L7.25477 4.27519C7.29905 4.24451 7.33524 4.20356 7.36023 4.15584C7.38522 4.10812 7.39827 4.05506 7.39827 4.00119C7.39827 3.94732 7.38522 3.89426 7.36023 3.84654C7.33524 3.79882 7.29905 3.75787 7.25477 3.72719L2.92144 0.72719C2.87143 0.692587 2.81291 0.672325 2.75221 0.668596C2.69151 0.664867 2.63095 0.677815 2.57708 0.706036C2.52321 0.734257 2.47809 0.776677 2.4466 0.828703C2.41511 0.880728 2.39846 0.940377 2.39844 1.00119V7.00119C2.39843 7.06204 2.41507 7.12172 2.44657 7.17378C2.47806 7.22584 2.5232 7.26829 2.5771 7.29652Z" fill="white"/>
</svg>
