<svg width="8" height="8" viewBox="0 0 8 8" fill="none" xmlns="http://www.w3.org/2000/svg">
<path d="M1.67867 7.12855C1.73259 7.1566 1.79313 7.16943 1.85379 7.16568C1.91446 7.16192 1.97295 7.14171 2.023 7.10722L6.35633 4.10722C6.40061 4.07654 6.4368 4.03559 6.46179 3.98787C6.48678 3.94015 6.49984 3.88709 6.49984 3.83322C6.49984 3.77935 6.48678 3.72629 6.46179 3.67857C6.4368 3.63085 6.40061 3.5899 6.35633 3.55922L2.023 0.559221C1.97299 0.524618 1.91447 0.504356 1.85377 0.500627C1.79307 0.496899 1.73251 0.509846 1.67864 0.538067C1.62478 0.566289 1.57965 0.608709 1.54817 0.660734C1.51668 0.71276 1.50002 0.772408 1.5 0.833221L1.5 6.83322C1.49999 6.89407 1.51663 6.95375 1.54813 7.00582C1.57962 7.05788 1.62477 7.10032 1.67867 7.12855Z" fill="#868C9C"/>
</svg>
