<svg width="8" height="8" viewBox="0 0 8 8" fill="none" xmlns="http://www.w3.org/2000/svg">
<path d="M0.871446 1.67867C0.843399 1.73259 0.830566 1.79313 0.834324 1.85379C0.838083 1.91446 0.85829 1.97295 0.892779 2.023L3.89278 6.35633C3.92346 6.40061 3.96441 6.4368 4.01213 6.46179C4.05985 6.48678 4.11291 6.49984 4.16678 6.49984C4.22065 6.49984 4.27371 6.48678 4.32143 6.46179C4.36915 6.4368 4.4101 6.40061 4.44078 6.35633L7.44078 2.023C7.47538 1.97299 7.49564 1.91447 7.49937 1.85377C7.5031 1.79307 7.49015 1.73251 7.46193 1.67864C7.43371 1.62478 7.39129 1.57965 7.33927 1.54817C7.28724 1.51668 7.22759 1.50002 7.16678 1.5L1.16678 1.5C1.10593 1.49999 1.04625 1.51663 0.994185 1.54813C0.942124 1.57962 0.899678 1.62477 0.871446 1.67867Z" fill="white"/>
</svg>
