<svg width="8" height="8" viewBox="0 0 8 8" fill="none" xmlns="http://www.w3.org/2000/svg">
<path d="M1.85054 7.29652C1.90446 7.32457 1.96501 7.3374 2.02567 7.33364C2.08633 7.32989 2.14483 7.30968 2.19487 7.27519L6.52821 4.27519C6.57249 4.24451 6.60867 4.20356 6.63367 4.15584C6.65866 4.10812 6.67171 4.05506 6.67171 4.00119C6.67171 3.94732 6.65866 3.89426 6.63367 3.84654C6.60867 3.79882 6.57249 3.75787 6.52821 3.72719L2.19487 0.72719C2.14487 0.692587 2.08634 0.672325 2.02565 0.668596C1.96495 0.664867 1.90439 0.677815 1.85052 0.706036C1.79665 0.734257 1.75153 0.776677 1.72004 0.828703C1.68855 0.880728 1.6719 0.940377 1.67188 1.00119V7.00119C1.67186 7.06204 1.68851 7.12172 1.72 7.17378C1.7515 7.22584 1.79664 7.26829 1.85054 7.29652Z" fill="#CAD0E2"/>
</svg>
