<svg width="32" height="32" viewBox="0 0 32 32" fill="none" xmlns="http://www.w3.org/2000/svg">
<path d="M13.9077 26.5659L18.657 24.5499C18.7436 25.1338 18.634 25.7298 18.3454 26.2447C18.0567 26.7595 17.6053 27.164 17.062 27.3946C16.5186 27.6252 15.9141 27.669 15.3433 27.519C14.7724 27.369 14.2675 27.0338 13.9077 26.5659ZM21.1503 2.79257C23.9317 4.31257 26.0197 6.26323 27.393 8.6419C28.7663 11.0206 29.413 13.8046 29.3383 16.9726C29.3321 17.2378 29.2208 17.4897 29.0289 17.6728C28.837 17.856 28.5802 17.9554 28.315 17.9492C28.0498 17.943 27.7979 17.8318 27.6147 17.6398C27.4316 17.4479 27.3321 17.1911 27.3383 16.9259C27.405 14.1099 26.8423 11.6886 25.661 9.6419C24.4797 7.59523 22.6623 5.8979 20.1917 4.54857C19.9588 4.42126 19.786 4.20667 19.7114 3.95199C19.6368 3.69732 19.6664 3.42343 19.7937 3.19057C19.921 2.95771 20.1356 2.78495 20.3902 2.71031C20.6449 2.63567 20.9188 2.66526 21.1517 2.79257H21.1503ZM8.95032 8.68723C10.7849 7.86801 12.8657 7.79177 14.7553 8.47453C16.6449 9.15728 18.1964 10.5459 19.0837 12.3486L19.2143 12.6286L20.9317 16.4832L23.1957 18.4432C23.3197 18.5499 23.4263 18.6752 23.5503 18.8766L23.629 19.0286C23.7178 19.2288 23.7663 19.4445 23.7716 19.6635C23.777 19.8824 23.7392 20.1003 23.6603 20.3046C23.5814 20.5089 23.463 20.6957 23.3119 20.8542C23.1608 21.0128 22.98 21.14 22.7797 21.2286L9.00899 27.3206C8.75532 27.4326 8.47771 27.4796 8.20131 27.4572C7.92491 27.4349 7.65845 27.3439 7.42608 27.1926C7.19372 27.0412 7.00278 26.8343 6.87058 26.5905C6.73838 26.3468 6.66909 26.0739 6.66899 25.7966L6.66766 22.6726L5.01166 18.9499C4.59499 18.0177 4.36633 17.0125 4.33877 15.9918C4.3112 14.9711 4.48528 13.955 4.85103 13.0016C5.21677 12.0483 5.767 11.1765 6.4702 10.4362C7.17339 9.69586 8.01574 9.10152 8.94899 8.68723H8.95032ZM6.83832 18.1379L8.66766 22.2486V25.2846L21.489 19.6112L19.285 17.7046L17.3957 13.4606L17.2823 13.2179C16.6216 11.8831 15.4697 10.856 14.0681 10.3522C12.6666 9.84827 11.1244 9.90671 9.76499 10.5152C9.07135 10.8224 8.44519 11.2635 7.92243 11.8133C7.39967 12.363 6.9906 13.0106 6.71868 13.7188C6.44677 14.427 6.31737 15.1819 6.3379 15.9403C6.35843 16.6986 6.52849 17.4454 6.83832 18.1379ZM20.8343 7.5939C22.1237 8.29657 23.157 9.31923 23.9223 10.6459C24.6877 11.9726 25.057 13.3792 25.021 14.8459C25.0178 14.9772 24.9889 15.1066 24.9357 15.2268C24.8825 15.3469 24.8062 15.4553 24.7111 15.546C24.616 15.6366 24.504 15.7076 24.3815 15.755C24.259 15.8023 24.1283 15.8251 23.997 15.8219C23.8657 15.8187 23.7363 15.7898 23.6161 15.7366C23.496 15.6834 23.3875 15.6071 23.2969 15.512C23.2063 15.4169 23.1353 15.3049 23.0879 15.1824C23.0406 15.0599 23.0178 14.9292 23.021 14.7979C23.0477 13.7019 22.7743 12.6579 22.1903 11.6459C21.6063 10.6326 20.8383 9.87257 19.877 9.3499C19.6441 9.22295 19.4712 9.0087 19.3963 8.75427C19.3215 8.49985 19.3507 8.22609 19.4777 7.99323C19.6046 7.76037 19.8189 7.58748 20.0733 7.51259C20.3277 7.4377 20.6015 7.46695 20.8343 7.5939Z" fill="#FF792F"/>
</svg>
