<svg width="24" height="24" viewBox="0 0 24 24" fill="none" xmlns="http://www.w3.org/2000/svg">
<g clip-path="url(#clip0_3504_383)">
<path d="M13.9202 11.8001L11.225 10.5425C10.9898 10.4333 10.7966 10.5557 10.7966 10.8161V13.1849C10.7966 13.4453 10.9898 13.5677 11.225 13.4585L13.919 12.2009C14.1554 12.0905 14.1554 11.9105 13.9202 11.8001ZM11.9966 0.480469C5.63416 0.480469 0.476562 5.63807 0.476562 12.0005C0.476562 18.3629 5.63416 23.5205 11.9966 23.5205C18.359 23.5205 23.5166 18.3629 23.5166 12.0005C23.5166 5.63807 18.359 0.480469 11.9966 0.480469ZM11.9966 16.6805C6.09976 16.6805 5.99656 16.1489 5.99656 12.0005C5.99656 7.85207 6.09976 7.32047 11.9966 7.32047C17.8934 7.32047 17.9966 7.85207 17.9966 12.0005C17.9966 16.1489 17.8934 16.6805 11.9966 16.6805Z" fill="#868C9C"/>
</g>
<defs>
<clipPath id="clip0_3504_383">
<rect width="24" height="24" fill="white"/>
</clipPath>
</defs>
</svg>
